<svg width="91" height="24" viewBox="0 0 91 24" fill="none" xmlns="http://www.w3.org/2000/svg">
<path d="M4.06 11.827C4.452 11.827 4.79733 11.7803 5.096 11.687C5.39933 11.589 5.65133 11.4537 5.852 11.281C6.05733 11.1037 6.21133 10.8937 6.314 10.651C6.41667 10.4083 6.468 10.14 6.468 9.846C6.468 9.24867 6.272 8.79833 5.88 8.495C5.488 8.19167 4.9 8.04 4.116 8.04H2.632V11.827H4.06ZM8.694 17H7.49C7.24267 17 7.06067 16.9043 6.944 16.713L4.34 13.129C4.26067 13.017 4.17433 12.9377 4.081 12.891C3.99233 12.8397 3.85233 12.814 3.661 12.814H2.632V17H1.281V6.969H4.116C4.75067 6.969 5.299 7.03433 5.761 7.165C6.223 7.291 6.60333 7.47533 6.902 7.718C7.20533 7.96067 7.42933 8.25467 7.574 8.6C7.71867 8.94067 7.791 9.32333 7.791 9.748C7.791 10.1027 7.735 10.434 7.623 10.742C7.511 11.05 7.34767 11.3277 7.133 11.575C6.923 11.8177 6.664 12.0253 6.356 12.198C6.05267 12.3707 5.70733 12.5013 5.32 12.59C5.49267 12.688 5.642 12.8303 5.768 13.017L8.694 17ZM14.0592 12.681C14.0592 12.3917 14.0172 12.128 13.9332 11.89C13.8538 11.6473 13.7348 11.4397 13.5762 11.267C13.4222 11.0897 13.2332 10.9543 13.0092 10.861C12.7852 10.763 12.5308 10.714 12.2462 10.714C11.6488 10.714 11.1752 10.889 10.8252 11.239C10.4798 11.5843 10.2652 12.065 10.1812 12.681H14.0592ZM15.0672 16.006C14.9132 16.1927 14.7288 16.356 14.5142 16.496C14.2995 16.6313 14.0685 16.7433 13.8212 16.832C13.5785 16.9207 13.3265 16.986 13.0652 17.028C12.8038 17.0747 12.5448 17.098 12.2882 17.098C11.7982 17.098 11.3455 17.0163 10.9302 16.853C10.5195 16.685 10.1625 16.4423 9.85917 16.125C9.56051 15.803 9.32717 15.4063 9.15917 14.935C8.99117 14.4637 8.90717 13.9223 8.90717 13.311C8.90717 12.8163 8.98184 12.3543 9.13117 11.925C9.28517 11.4957 9.50451 11.1247 9.78917 10.812C10.0738 10.4947 10.4215 10.2473 10.8322 10.07C11.2428 9.888 11.7048 9.797 12.2182 9.797C12.6428 9.797 13.0348 9.86933 13.3942 10.014C13.7582 10.154 14.0708 10.3593 14.3322 10.63C14.5982 10.896 14.8058 11.2273 14.9552 11.624C15.1045 12.016 15.1792 12.464 15.1792 12.968C15.1792 13.164 15.1582 13.2947 15.1162 13.36C15.0742 13.4253 14.9948 13.458 14.8782 13.458H10.1392C10.1532 13.906 10.2138 14.2957 10.3212 14.627C10.4332 14.9583 10.5872 15.236 10.7832 15.46C10.9792 15.6793 11.2125 15.845 11.4832 15.957C11.7538 16.0643 12.0572 16.118 12.3932 16.118C12.7058 16.118 12.9742 16.083 13.1982 16.013C13.4268 15.9383 13.6228 15.859 13.7862 15.775C13.9495 15.691 14.0848 15.614 14.1922 15.544C14.3042 15.4693 14.3998 15.432 14.4792 15.432C14.5818 15.432 14.6612 15.4717 14.7172 15.551L15.0672 16.006ZM20.5527 13.808C19.9787 13.8267 19.4887 13.8733 19.0827 13.948C18.6813 14.018 18.3523 14.1113 18.0957 14.228C17.8437 14.3447 17.6593 14.4823 17.5427 14.641C17.4307 14.7997 17.3747 14.977 17.3747 15.173C17.3747 15.3597 17.405 15.5207 17.4657 15.656C17.5263 15.7913 17.608 15.9033 17.7107 15.992C17.818 16.076 17.9417 16.139 18.0817 16.181C18.2263 16.2183 18.3803 16.237 18.5437 16.237C18.763 16.237 18.9637 16.216 19.1457 16.174C19.3277 16.1273 19.498 16.062 19.6567 15.978C19.82 15.894 19.974 15.7937 20.1187 15.677C20.268 15.5603 20.4127 15.4273 20.5527 15.278V13.808ZM16.5277 10.91C16.9197 10.532 17.342 10.2497 17.7947 10.063C18.2473 9.87633 18.749 9.783 19.2997 9.783C19.6963 9.783 20.0487 9.84833 20.3567 9.979C20.6647 10.1097 20.9237 10.2917 21.1337 10.525C21.3437 10.7583 21.5023 11.0407 21.6097 11.372C21.717 11.7033 21.7707 12.0673 21.7707 12.464V17H21.2177C21.0963 17 21.003 16.9813 20.9377 16.944C20.8723 16.902 20.821 16.8227 20.7837 16.706L20.6437 16.034C20.457 16.2067 20.275 16.3607 20.0977 16.496C19.9203 16.6267 19.7337 16.7387 19.5377 16.832C19.3417 16.9207 19.1317 16.9883 18.9077 17.035C18.6883 17.0863 18.4433 17.112 18.1727 17.112C17.8973 17.112 17.6383 17.0747 17.3957 17C17.153 16.9207 16.9407 16.804 16.7587 16.65C16.5813 16.496 16.439 16.3023 16.3317 16.069C16.229 15.831 16.1777 15.551 16.1777 15.229C16.1777 14.949 16.2547 14.6807 16.4087 14.424C16.5627 14.1627 16.8123 13.9317 17.1577 13.731C17.503 13.5303 17.9533 13.367 18.5087 13.241C19.064 13.1103 19.7453 13.0357 20.5527 13.017V12.464C20.5527 11.9133 20.4337 11.498 20.1957 11.218C19.9577 10.9333 19.61 10.791 19.1527 10.791C18.8447 10.791 18.5857 10.8307 18.3757 10.91C18.1703 10.9847 17.9907 11.071 17.8367 11.169C17.6873 11.2623 17.5567 11.3487 17.4447 11.428C17.3373 11.5027 17.23 11.54 17.1227 11.54C17.0387 11.54 16.9663 11.519 16.9057 11.477C16.845 11.4303 16.7937 11.3743 16.7517 11.309L16.5277 10.91ZM28.2886 11.596C28.0553 11.2833 27.8033 11.0663 27.5326 10.945C27.262 10.819 26.9586 10.756 26.6226 10.756C25.9646 10.756 25.4583 10.9917 25.1036 11.463C24.749 11.9343 24.5716 12.6063 24.5716 13.479C24.5716 13.941 24.6113 14.3377 24.6906 14.669C24.77 14.9957 24.8866 15.2663 25.0406 15.481C25.1946 15.691 25.3836 15.845 25.6076 15.943C25.8316 16.041 26.086 16.09 26.3706 16.09C26.7813 16.09 27.1383 15.9967 27.4416 15.81C27.7496 15.6233 28.032 15.3597 28.2886 15.019V11.596ZM29.5346 6.689V17H28.7926C28.6153 17 28.5033 16.9137 28.4566 16.741L28.3446 15.88C28.0413 16.244 27.696 16.538 27.3086 16.762C26.9213 16.986 26.4733 17.098 25.9646 17.098C25.5586 17.098 25.19 17.021 24.8586 16.867C24.5273 16.7083 24.245 16.4773 24.0116 16.174C23.7783 15.8707 23.5986 15.4927 23.4726 15.04C23.3466 14.5873 23.2836 14.067 23.2836 13.479C23.2836 12.9563 23.3536 12.471 23.4936 12.023C23.6336 11.5703 23.8343 11.1783 24.0956 10.847C24.357 10.5157 24.6766 10.2567 25.0546 10.07C25.4373 9.87867 25.8666 9.783 26.3426 9.783C26.7766 9.783 27.1476 9.85767 27.4556 10.007C27.7683 10.1517 28.046 10.3547 28.2886 10.616V6.689H29.5346ZM35.0847 17V9.909H35.8337C36.011 9.909 36.1207 9.99533 36.1627 10.168L36.2537 10.896C36.515 10.574 36.809 10.3103 37.1357 10.105C37.4623 9.89967 37.8403 9.797 38.2697 9.797C38.7457 9.797 39.1307 9.93 39.4247 10.196C39.7233 10.462 39.938 10.8213 40.0687 11.274C40.1713 11.0173 40.302 10.7957 40.4607 10.609C40.624 10.4223 40.806 10.2683 41.0067 10.147C41.2073 10.0257 41.4197 9.937 41.6437 9.881C41.8723 9.825 42.1033 9.797 42.3367 9.797C42.71 9.797 43.0413 9.85767 43.3307 9.979C43.6247 10.0957 43.872 10.2683 44.0727 10.497C44.278 10.7257 44.4343 11.008 44.5417 11.344C44.649 11.6753 44.7027 12.0557 44.7027 12.485V17H43.4497V12.485C43.4497 11.9297 43.3283 11.5097 43.0857 11.225C42.843 10.9357 42.493 10.791 42.0357 10.791C41.8303 10.791 41.6343 10.8283 41.4477 10.903C41.2657 10.973 41.1047 11.078 40.9647 11.218C40.8247 11.358 40.7127 11.5353 40.6287 11.75C40.5493 11.96 40.5097 12.205 40.5097 12.485V17H39.2567V12.485C39.2567 11.9157 39.1423 11.491 38.9137 11.211C38.685 10.931 38.3513 10.791 37.9127 10.791C37.6047 10.791 37.32 10.875 37.0587 11.043C36.7973 11.2063 36.557 11.4303 36.3377 11.715V17H35.0847ZM49.5854 9.797C50.1034 9.797 50.57 9.88333 50.9854 10.056C51.4007 10.2287 51.7554 10.4737 52.0494 10.791C52.3434 11.1083 52.5674 11.4933 52.7214 11.946C52.88 12.394 52.9594 12.8957 52.9594 13.451C52.9594 14.011 52.88 14.515 52.7214 14.963C52.5674 15.411 52.3434 15.7937 52.0494 16.111C51.7554 16.4283 51.4007 16.6733 50.9854 16.846C50.57 17.014 50.1034 17.098 49.5854 17.098C49.0627 17.098 48.5914 17.014 48.1714 16.846C47.756 16.6733 47.4014 16.4283 47.1074 16.111C46.8134 15.7937 46.587 15.411 46.4284 14.963C46.2744 14.515 46.1974 14.011 46.1974 13.451C46.1974 12.8957 46.2744 12.394 46.4284 11.946C46.587 11.4933 46.8134 11.1083 47.1074 10.791C47.4014 10.4737 47.756 10.2287 48.1714 10.056C48.5914 9.88333 49.0627 9.797 49.5854 9.797ZM49.5854 16.125C50.2854 16.125 50.808 15.8917 51.1534 15.425C51.4987 14.9537 51.6714 14.298 51.6714 13.458C51.6714 12.6133 51.4987 11.9553 51.1534 11.484C50.808 11.0127 50.2854 10.777 49.5854 10.777C49.2307 10.777 48.9204 10.8377 48.6544 10.959C48.393 11.0803 48.1737 11.2553 47.9964 11.484C47.8237 11.7127 47.693 11.995 47.6044 12.331C47.5204 12.6623 47.4784 13.038 47.4784 13.458C47.4784 14.298 47.651 14.9537 47.9964 15.425C48.3464 15.8917 48.876 16.125 49.5854 16.125ZM55.7227 11.33C55.9467 10.8447 56.2221 10.4667 56.5487 10.196C56.8754 9.92067 57.2744 9.783 57.7457 9.783C57.8951 9.783 58.0374 9.79933 58.1727 9.832C58.3127 9.86467 58.4364 9.916 58.5437 9.986L58.4527 10.917C58.4247 11.0337 58.3547 11.092 58.2427 11.092C58.1774 11.092 58.0817 11.078 57.9557 11.05C57.8297 11.022 57.6874 11.008 57.5287 11.008C57.3047 11.008 57.1041 11.0407 56.9267 11.106C56.7541 11.1713 56.5977 11.2693 56.4577 11.4C56.3224 11.526 56.1987 11.6847 56.0867 11.876C55.9794 12.0627 55.8814 12.2773 55.7927 12.52V17H54.5397V9.909H55.2537C55.3891 9.909 55.4824 9.93467 55.5337 9.986C55.5851 10.0373 55.6201 10.126 55.6387 10.252L55.7227 11.33ZM64.0982 12.681C64.0982 12.3917 64.0562 12.128 63.9722 11.89C63.8929 11.6473 63.7739 11.4397 63.6152 11.267C63.4612 11.0897 63.2722 10.9543 63.0482 10.861C62.8242 10.763 62.5699 10.714 62.2852 10.714C61.6879 10.714 61.2142 10.889 60.8642 11.239C60.5189 11.5843 60.3042 12.065 60.2202 12.681H64.0982ZM65.1062 16.006C64.9522 16.1927 64.7679 16.356 64.5532 16.496C64.3386 16.6313 64.1076 16.7433 63.8602 16.832C63.6176 16.9207 63.3656 16.986 63.1042 17.028C62.8429 17.0747 62.5839 17.098 62.3272 17.098C61.8372 17.098 61.3846 17.0163 60.9692 16.853C60.5586 16.685 60.2016 16.4423 59.8982 16.125C59.5996 15.803 59.3662 15.4063 59.1982 14.935C59.0302 14.4637 58.9462 13.9223 58.9462 13.311C58.9462 12.8163 59.0209 12.3543 59.1702 11.925C59.3242 11.4957 59.5436 11.1247 59.8282 10.812C60.1129 10.4947 60.4606 10.2473 60.8712 10.07C61.2819 9.888 61.7439 9.797 62.2572 9.797C62.6819 9.797 63.0739 9.86933 63.4332 10.014C63.7972 10.154 64.1099 10.3593 64.3712 10.63C64.6372 10.896 64.8449 11.2273 64.9942 11.624C65.1436 12.016 65.2182 12.464 65.2182 12.968C65.2182 13.164 65.1972 13.2947 65.1552 13.36C65.1132 13.4253 65.0339 13.458 64.9172 13.458H60.1782C60.1922 13.906 60.2529 14.2957 60.3602 14.627C60.4722 14.9583 60.6262 15.236 60.8222 15.46C61.0182 15.6793 61.2516 15.845 61.5222 15.957C61.7929 16.0643 62.0962 16.118 62.4322 16.118C62.7449 16.118 63.0132 16.083 63.2372 16.013C63.4659 15.9383 63.6619 15.859 63.8252 15.775C63.9886 15.691 64.1239 15.614 64.2312 15.544C64.3432 15.4693 64.4389 15.432 64.5182 15.432C64.6209 15.432 64.7002 15.4717 64.7562 15.551L65.1062 16.006Z" fill="#FF6250"/>
<path d="M84.019 8.16868C83.7363 7.886 83.7363 7.42768 84.019 7.145C84.3017 6.86231 84.76 6.86231 85.0427 7.145L89.3858 11.4881C89.6685 11.7708 89.6685 12.2291 89.3858 12.5118L85.0427 16.8549C84.76 17.1376 84.3017 17.1376 84.019 16.8549C83.7363 16.5723 83.7363 16.1139 84.019 15.8313L87.1265 12.7238H74.4047C74.0005 12.7238 73.6729 12.3997 73.6729 12C73.6729 11.6002 74.0005 11.2761 74.4047 11.2761H87.1264L84.019 8.16868Z" fill="#FF6250"/>
</svg>
