<svg width="13" height="12" viewBox="0 0 13 12" fill="none" xmlns="http://www.w3.org/2000/svg">
<path d="M5.76004 1.35013C5.97489 0.914807 6.59564 0.914805 6.81049 1.35013L7.87033 3.49761C7.95565 3.67047 8.12056 3.79029 8.31133 3.81801L10.6812 4.16237C11.1616 4.23218 11.3534 4.82256 11.0058 5.16141L9.29096 6.83298C9.15291 6.96754 9.08992 7.16141 9.12251 7.35141L9.52733 9.71172C9.6094 10.1902 9.10719 10.5551 8.67751 10.3292L6.55782 9.21477C6.38719 9.12506 6.18334 9.12506 6.01271 9.21477L3.89303 10.3292C3.46334 10.5551 2.96114 10.1902 3.0432 9.71172L3.44802 7.35141C3.48061 7.16141 3.41762 6.96754 3.27958 6.83298L1.56471 5.16141C1.21709 4.82256 1.40891 4.23218 1.88932 4.16237L4.2592 3.81801C4.44997 3.79029 4.61489 3.67047 4.7002 3.49761L5.76004 1.35013Z" fill="#2D2D2D"/>
</svg>
