<svg width="42" height="28" viewBox="0 0 42 28" fill="none" xmlns="http://www.w3.org/2000/svg">
<path fill-rule="evenodd" clip-rule="evenodd" d="M21.927 1.69145C20.259 2.64937 18.878 3.43922 18.8583 3.44666C18.8385 3.4541 20.7464 6.80332 23.0982 10.8894L27.374 18.3186H31.4831H35.5921L35.4927 18.1419C35.2621 17.7322 25.0507 0.083525 25.0073 0.0197551C24.9651 -0.0423105 24.6172 0.146505 21.927 1.69145ZM14.8826 8.16007C13.2021 9.12863 11.8323 9.94106 11.8385 9.9655C11.8447 9.98994 12.9343 11.8841 14.2599 14.1747L16.6699 18.3394L16.67 19.202L16.6702 20.0646H17.5432H18.4162V19.1919V18.3191L21.6179 18.3085L24.8197 18.2978L21.3855 12.3532C19.4967 9.08361 17.9483 6.40639 17.9447 6.40382C17.9411 6.4012 16.5632 7.19155 14.8826 8.16007ZM7.69348 14.453C6.03725 15.4124 4.6681 16.2117 4.65093 16.2291C4.63377 16.2466 4.8844 16.7238 5.20794 17.2897L5.79617 18.3186H9.8866C13.1419 18.3186 13.9729 18.308 13.957 18.2667C13.9078 18.1388 10.7692 12.7281 10.7388 12.7189C10.7201 12.7132 9.34967 13.4935 7.69348 14.453ZM14.0512 19.7955V21.2723L13.7498 21.1074C12.6877 20.5265 11.4128 20.5108 10.289 21.0648C9.5554 21.4265 9.02575 21.9493 8.67023 22.6628C8.37092 23.2634 8.29476 23.5957 8.29863 24.2841C8.30253 24.9793 8.38302 25.3355 8.66508 25.9053C9.28423 27.1563 10.5724 27.9625 11.9519 27.9625C12.5466 27.9625 13.1283 27.8161 13.7072 27.5207L14.0512 27.3451V27.571V27.7968H14.9242H15.7972V23.0577V18.3186H14.9242H14.0512V19.7955ZM24.8597 19.7892V21.2598L24.5583 21.0991C23.275 20.4147 21.6875 20.5411 20.5336 21.4196C19.8552 21.9361 19.3589 22.7204 19.1818 23.5556C19.1133 23.8786 19.1056 24.5661 19.1666 24.9104C19.5136 26.8696 21.3195 28.1885 23.2946 27.9248C23.7122 27.8691 24.3664 27.6496 24.6612 27.4664L24.8597 27.343V27.5699V27.7968H25.7327H26.6057V23.0577V18.3186H25.7327H24.8597V19.7892ZM3.34032 20.6877C1.93793 20.8858 0.765414 21.8609 0.340724 23.1824C-0.202692 24.8734 0.582294 26.7496 2.1684 27.5508C3.24679 28.0955 4.44616 28.0965 5.53956 27.5535L5.94487 27.3522V27.5745V27.7968H6.79708H7.64929V24.2633V20.7297H6.79708H5.94487V20.9965V21.2634L5.5502 21.0624C5.31316 20.9417 5.00944 20.8272 4.78966 20.7756C4.36463 20.6758 3.70694 20.6359 3.34032 20.6877ZM30.3351 20.6891C29.4264 20.8327 28.5209 21.3482 27.9813 22.0292C27.7025 22.381 27.4657 22.8367 27.328 23.2864C27.225 23.6229 27.2136 23.7211 27.2149 24.2633C27.2166 24.9608 27.2916 25.3125 27.5558 25.8638C28.0348 26.8632 28.9031 27.5709 30.0145 27.8677C30.3972 27.9699 31.3421 27.9677 31.7329 27.8637C32.0922 27.7681 32.4412 27.6267 32.7125 27.4666L32.9245 27.3417V27.5693V27.7968H33.7975H34.6705V24.2633V20.7297H33.7975H32.9245V21.005C32.9245 21.2202 32.9131 21.2711 32.8725 21.2379C32.726 21.1182 32.1135 20.853 31.8059 20.7762C31.4044 20.6759 30.6875 20.6334 30.3351 20.6891ZM38.0169 20.6739C36.7519 20.8241 35.8972 21.4123 35.6196 22.3239C35.5479 22.5591 35.5362 22.6832 35.5521 23.0398C35.5697 23.4349 35.5844 23.4977 35.7272 23.7868C36.1063 24.5538 36.657 24.8279 38.3953 25.1148C39.2469 25.2554 39.5342 25.3481 39.6987 25.5354C39.9605 25.8335 39.8017 26.2716 39.3472 26.5052C39.1595 26.6017 39.0931 26.612 38.6613 26.612C38.2873 26.612 38.1349 26.5941 37.9613 26.5298C37.557 26.3799 37.2846 26.0666 37.2229 25.6805L37.1957 25.5104H36.2864H35.3772V25.6472C35.3772 25.8685 35.4934 26.2512 35.6527 26.5543C36.154 27.5083 37.3658 28.0295 38.8932 27.9478C40.6042 27.8563 41.607 27.0855 41.7229 25.7727C41.8202 24.6707 41.0935 23.8678 39.7352 23.5765C39.4761 23.5209 39.0022 23.429 38.6821 23.3723C37.9553 23.2436 37.702 23.1626 37.5157 22.9992C37.3307 22.8371 37.29 22.6371 37.3963 22.4131C37.4537 22.2921 37.5234 22.2317 37.7022 22.1478C37.9161 22.0475 37.9767 22.0392 38.495 22.0392C39.0319 22.0392 39.0646 22.0442 39.25 22.1532C39.4816 22.2893 39.6142 22.488 39.6525 22.7564L39.6807 22.9538L40.5637 22.965C41.5722 22.9778 41.4899 23.0183 41.3825 22.5627C41.2541 22.0181 40.8184 21.4249 40.3277 21.1269C39.753 20.7777 38.7682 20.5847 38.0169 20.6739ZM16.6702 24.2633V27.7968H17.5432H18.4162V24.2633V20.7297H17.5432H16.6702V24.2633ZM4.40957 22.3349C5.21011 22.5724 5.78462 23.2197 5.90987 24.0253C6.00598 24.6435 5.7901 25.245 5.30497 25.7109C4.35848 26.6197 2.87589 26.4426 2.15937 25.3349C1.93975 24.9954 1.8567 24.6526 1.87769 24.1721C1.89274 23.8289 1.91294 23.744 2.04668 23.4624C2.47739 22.5555 3.50324 22.066 4.40957 22.3349ZM12.5159 22.3342C12.8901 22.4441 13.2063 22.6378 13.4677 22.9172C14.2483 23.7517 14.2245 24.9299 13.4113 25.7109C12.6203 26.4704 11.4287 26.4902 10.6267 25.7573C10.2428 25.4063 10.0432 25.0261 9.97722 24.5198C9.85297 23.5663 10.5229 22.5905 11.4782 22.3337C11.779 22.2528 12.2395 22.253 12.5159 22.3342ZM23.5757 22.41C24.3479 22.7234 24.8597 23.4787 24.8597 24.3048C24.8597 25.278 24.1513 26.0965 23.1624 26.266C22.5144 26.3772 21.8876 26.1694 21.4129 25.6861C20.9681 25.2334 20.8063 24.8087 20.8343 24.1682C20.849 23.8311 20.8699 23.7431 20.9992 23.472C21.2571 22.9315 21.6729 22.5587 22.2398 22.3598C22.6178 22.2272 23.1771 22.2482 23.5757 22.41ZM31.4307 22.3349C31.8009 22.4447 32.0553 22.5964 32.3209 22.8656C32.9707 23.5243 33.1066 24.4082 32.6858 25.239C32.5305 25.5458 32.1113 25.944 31.7813 26.0985C30.4367 26.7277 28.8892 25.7379 28.8926 24.2508C28.8945 23.4028 29.5636 22.5648 30.4302 22.3252C30.6956 22.2518 31.1661 22.2563 31.4307 22.3349Z" fill="#2D2D2D"/>
</svg>
