<svg width="77" height="24" viewBox="0 0 77 24" fill="none" xmlns="http://www.w3.org/2000/svg">
<path fill-rule="evenodd" clip-rule="evenodd" d="M38.5442 8.02039L38.5443 8.14607C38.5453 9.01284 38.5462 9.74866 38.1037 10.53C37.7294 11.1956 37.1332 11.605 36.4741 11.605C35.5698 11.605 35.0399 10.9127 35.0399 9.89091C35.0399 7.87394 36.8384 7.50783 38.5442 7.50783V8.02039ZM40.9191 13.7884C40.7634 13.9282 40.5382 13.9382 40.3627 13.845C39.6974 13.2898 39.4952 12.9877 39.1863 12.5264L39.1862 12.5263C39.1322 12.4456 39.0749 12.36 39.0113 12.2673C37.7195 13.592 36.802 13.9881 35.1293 13.9881C33.1453 13.9881 31.6051 12.7599 31.6051 10.3003C31.6051 8.37985 32.6385 7.07182 34.1158 6.43278C35.1877 5.95838 36.6159 5.81154 37.8538 5.68428C38.0923 5.65975 38.3238 5.63596 38.5442 5.61068V5.30448C38.5442 5.24721 38.5447 5.18887 38.5451 5.12976V5.12973C38.5491 4.60828 38.5536 4.02684 38.2561 3.59039C37.9712 3.15438 37.4214 2.97465 36.9345 2.97465C36.0369 2.97465 35.2386 3.43728 35.0432 4.39584C35.0034 4.60886 34.8478 4.81854 34.6325 4.82853L32.3503 4.58223C32.1582 4.53896 31.9429 4.38253 31.9992 4.08631C32.5226 1.30383 35.0266 0.465088 37.2657 0.465088C38.4117 0.465088 39.9089 0.771295 40.8131 1.64332C41.8667 2.63161 41.8593 3.92368 41.8513 5.33853V5.3397C41.8506 5.46352 41.8499 5.58828 41.8499 5.71386V9.40164C41.8499 10.3912 42.2142 10.8846 42.5987 11.4054C42.6449 11.4679 42.6914 11.5308 42.7375 11.595C42.8866 11.808 42.9197 12.0643 42.7276 12.2241C42.2473 12.6268 41.3928 13.3757 40.9224 13.795L40.9191 13.7884ZM14.1227 13.8216H16.4777C16.7294 13.8216 16.9315 13.6253 16.9315 13.3823V6.9453L16.9313 6.79212C16.929 5.40375 16.926 3.59701 18.5578 3.59701C20.0598 3.59701 20.0341 5.2045 20.0132 6.51338V6.51348V6.51357V6.51367V6.51378C20.0109 6.66241 20.0086 6.80717 20.0086 6.9453L20.0119 13.3823C20.0119 13.6153 20.1974 13.805 20.4358 13.8216H22.7875C23.0393 13.8216 23.2413 13.6253 23.2413 13.3823V6.9453L23.241 6.77826C23.2393 6.09889 23.237 5.18343 23.4599 4.6188C23.7017 4.00639 24.2979 3.62363 24.8676 3.62363C25.5499 3.62363 26.0766 3.85329 26.2521 4.66873C26.3428 5.05987 26.3304 5.96423 26.3222 6.5695C26.3201 6.71619 26.3184 6.84531 26.3184 6.9453V13.3823C26.3184 13.6153 26.5072 13.805 26.7423 13.8216H29.094C29.3458 13.8216 29.5478 13.6253 29.5478 13.3823L29.5511 5.71715C29.5511 5.53015 29.5543 5.33937 29.5575 5.14673C29.5764 3.99872 29.5964 2.78452 28.9582 1.90955C28.2991 0.990927 27.2193 0.581543 26.2323 0.581543C24.8444 0.581543 23.5493 1.29713 22.9796 2.83149C22.3172 1.29713 21.3964 0.581543 19.9224 0.581543C18.4717 0.581543 17.3952 1.29713 16.8222 2.83149H16.7791V1.24388C16.7626 1.02421 16.5804 0.847803 16.3518 0.837825H14.1558C13.9041 0.837825 13.702 1.03087 13.702 1.27384V13.4189C13.7186 13.6352 13.8975 13.805 14.1227 13.8216ZM44.715 2.98129V1.2439C44.715 0.980967 44.9137 0.804566 45.1522 0.804566H52.8929C53.1413 0.804566 53.3401 0.984295 53.3401 1.2439V2.73167C53.3368 2.98129 53.1281 3.30747 52.7571 3.82336L48.746 9.57803C50.2365 9.54142 51.8098 9.76442 53.1612 10.5299C53.4659 10.703 53.5487 10.956 53.5719 11.2056V13.0595C53.5719 13.3124 53.2937 13.6086 53.0022 13.4555C50.6207 12.2008 47.4575 12.0643 44.8243 13.4689C44.556 13.6153 44.2745 13.3224 44.2745 13.0695V11.3088C44.2745 11.0259 44.2778 10.5433 44.5593 10.1139L49.2064 3.4173H45.1621C44.9137 3.4173 44.715 3.2409 44.715 2.98129ZM44.64 16.1953C46.0757 16.0242 49.2161 15.6498 49.776 16.3713C50.3421 17.0997 49.1482 20.0953 48.6144 21.4345V21.4346L48.6134 21.437C48.4511 21.843 48.7989 22.0061 49.1633 21.6999C51.5381 19.7063 52.1476 15.5292 51.664 14.9268C51.1804 14.3277 47.0335 13.8118 44.5062 15.5991C44.1154 15.872 44.1816 16.2515 44.6156 16.1982L44.64 16.1953ZM31.5887 23.5072C37.1069 23.5072 43.5161 21.7599 47.938 18.4848C48.67 17.9389 48.044 17.1268 47.2954 17.4463C42.3403 19.5598 36.9512 20.5783 32.0524 20.5783C24.7887 20.5783 17.7568 18.578 12.0697 15.253C11.5728 14.9601 11.2018 15.4726 11.6159 15.8487C16.8857 20.6316 23.8513 23.5072 31.5887 23.5072ZM60.0044 0.581543C63.4989 0.581543 65.3901 3.59701 65.3901 7.43124C65.3901 11.1357 63.3001 14.0746 60.0044 14.0746C56.573 14.0746 54.7049 11.0591 54.7049 7.30143C54.7049 3.52046 56.5961 0.581543 60.0044 0.581543ZM60.0243 3.06115C58.2887 3.06115 58.1794 5.43757 58.1794 6.91868V6.97319C58.1791 8.47919 58.1785 11.5717 60.0044 11.5717C61.8295 11.5717 61.9156 9.01552 61.9156 7.45786C61.9156 6.43274 61.8725 5.20792 61.5645 4.23605C61.2995 3.39065 60.7729 3.06115 60.0243 3.06115ZM67.5758 13.8216H69.9209C70.1726 13.8216 70.378 13.6253 70.3813 13.3823V6.84212C70.3813 6.02336 70.4244 5.28447 70.7556 4.54225C71.0172 3.95647 71.5439 3.57038 72.1169 3.57038C73.6179 3.57038 73.6038 5.22613 73.5927 6.52536V6.52753C73.5918 6.63524 73.5909 6.74048 73.5909 6.84212V13.4389C73.614 13.6452 73.7929 13.805 74.0082 13.8216H76.3698C76.6017 13.8216 76.7971 13.6519 76.8236 13.4389V5.7937C76.8236 4.6188 76.8236 2.9846 76.2075 2.01272C75.5451 0.964301 74.515 0.581543 73.4584 0.581543C71.8321 0.581543 70.9079 1.37369 70.2488 3.03452H70.2058V1.17731C70.1594 0.9876 69.9904 0.847803 69.7851 0.837825H67.6023C67.3638 0.837825 67.1684 1.0109 67.1485 1.23389L67.1518 13.3823C67.1518 13.6153 67.3407 13.805 67.5758 13.8216ZM7.6707 8.14618C7.67065 8.1046 7.6706 8.06271 7.6706 8.02051V7.50795C5.96811 7.50795 4.16956 7.87406 4.16956 9.89103C4.16956 10.9128 4.69621 11.6051 5.60045 11.6051C6.2629 11.6051 6.85579 11.1957 7.23008 10.5301C7.67256 9.74878 7.67171 9.01295 7.6707 8.14618ZM9.48902 13.8451C9.66457 13.9383 9.8898 13.9283 10.0455 13.7885L10.0521 13.7952C10.5224 13.3758 11.377 12.6269 11.8573 12.2242C12.0494 12.0644 12.0163 11.8082 11.8639 11.5951C11.8177 11.5309 11.7713 11.468 11.7251 11.4055C11.3406 10.8847 10.9762 10.3913 10.9762 9.40176V5.71398C10.9762 5.588 10.9769 5.46285 10.9776 5.33864C10.9857 3.9238 10.993 2.63173 9.93949 1.64344C9.03525 0.771417 7.53811 0.46521 6.39208 0.46521C4.153 0.46521 1.65225 1.30395 1.1256 4.08643C1.07261 4.38265 1.28459 4.53908 1.4767 4.58235L3.76215 4.82865C3.97414 4.81866 4.12981 4.60898 4.16956 4.39596C4.36498 3.43741 5.16655 2.97477 6.06416 2.97477C6.54775 2.97477 7.09758 3.1545 7.38575 3.59051C7.68001 4.02658 7.67553 4.60738 7.67152 5.12847C7.67106 5.18807 7.6706 5.24687 7.6706 5.3046V5.6108C7.45013 5.63608 7.21867 5.65987 6.98014 5.6844C5.7423 5.81166 4.31409 5.9585 3.24213 6.4329C1.76818 7.07194 0.731445 8.37997 0.731445 10.3004C0.731445 12.7601 2.27495 13.9882 4.25568 13.9882C5.93168 13.9882 6.84585 13.5921 8.13763 12.2675C8.20578 12.366 8.26664 12.4565 8.32389 12.5416C8.62836 12.9945 8.83107 13.296 9.48902 13.8451Z" fill="#2D2D2D"/>
</svg>
