<svg width="25" height="30" viewBox="0 0 25 30" fill="none" xmlns="http://www.w3.org/2000/svg">
<path fill-rule="evenodd" clip-rule="evenodd" d="M17.8964 0.0152724C16.6312 0.137203 15.1458 0.87003 14.1036 1.88647C12.9887 2.97388 12.2353 4.48548 12.1032 5.9C12.0829 6.11723 12.0923 6.63412 12.1191 6.77853L12.1372 6.87609L12.2627 6.89392C12.446 6.91993 12.897 6.9043 13.1286 6.86391C14.0126 6.70978 14.9333 6.2747 15.7561 5.62221C16.0048 5.42493 16.4649 4.95935 16.6913 4.67562C17.021 4.26265 17.3009 3.82133 17.5268 3.35825C17.8559 2.68379 18.0509 2.04576 18.1575 1.29436C18.1883 1.07719 18.2025 0.400546 18.1799 0.225818C18.1487 -0.0154371 18.1546 -0.00134112 18.0855 0.000913052C18.0521 0.00199623 17.9671 0.00846601 17.8964 0.0152724ZM17.3296 7.25466C16.9889 7.27476 16.5269 7.34924 16.122 7.4493C15.589 7.58102 15.189 7.71696 14.2484 8.08607C13.4853 8.38554 13.2486 8.46896 12.9416 8.54669C12.5521 8.64528 12.2104 8.64282 11.7893 8.5384C11.4911 8.46445 11.2732 8.38698 10.4894 8.07622C9.73522 7.77716 9.46021 7.6776 9.10331 7.57437C8.23426 7.32302 7.54075 7.2671 6.66617 7.37784C5.72318 7.49725 4.81078 7.80977 3.98751 8.29536C2.38694 9.23942 1.19119 10.7641 0.547354 12.6819C0.0718258 14.0984 -0.0946613 15.7042 0.0510405 17.4688C0.184461 19.0846 0.579454 20.7996 1.19217 22.4236C1.58546 23.466 2.11734 24.5641 2.6456 25.4243C3.12856 26.2107 4.10198 27.5311 4.70675 28.2201C5.83166 29.5016 6.87497 30.0474 8.04071 29.9642C8.6545 29.9204 9.04368 29.811 9.98852 29.4168C10.598 29.1624 10.8526 29.0673 11.1678 28.9762C12.1211 28.7005 13.1981 28.6763 14.1313 28.9095C14.5218 29.0071 14.7466 29.0884 15.4121 29.3727C16.2375 29.7253 16.5537 29.8249 17.0734 29.8963C17.3042 29.928 17.799 29.9403 17.9956 29.9192C18.904 29.8219 19.7329 29.3709 20.5575 28.5253C21.0608 28.0093 21.5699 27.3606 22.3019 26.3025C23.1089 25.1361 23.8275 23.7122 24.2743 22.3943C24.4101 21.9938 24.411 21.99 24.3675 21.9765C24.2201 21.931 23.6563 21.6215 23.3602 21.4238C21.6686 20.2937 20.6473 18.6646 20.4266 16.7442C20.243 15.1469 20.5953 13.6277 21.45 12.331C21.9455 11.5794 22.6614 10.8627 23.4298 10.3491C23.5284 10.2832 23.6091 10.2222 23.6091 10.2135C23.6091 10.1888 23.4081 9.91983 23.2337 9.71114C22.0002 8.23559 20.2569 7.3877 18.1932 7.25962C17.971 7.24584 17.5229 7.24326 17.3296 7.25466Z" fill="#2D2D2D"/>
</svg>
