<svg width="68" height="23" viewBox="0 0 68 23" fill="none" xmlns="http://www.w3.org/2000/svg">
<path fill-rule="evenodd" clip-rule="evenodd" d="M8.90152 8.79622V11.1323L14.4848 11.1299C14.3135 12.4183 13.879 13.3616 13.2187 14.0219C12.4044 14.8362 11.1334 15.7324 8.90152 15.7324C5.46071 15.7324 2.76963 12.9594 2.76963 9.51865C2.76963 6.07783 5.46071 3.30483 8.90152 3.30483C10.7585 3.30483 12.114 4.0347 13.1144 4.9731L14.7628 3.32469C13.3676 1.99156 11.5107 0.96875 8.904 0.96875C4.19213 0.96875 0.22998 4.80677 0.22998 9.51865C0.22998 14.2306 4.19213 18.0686 8.904 18.0686C11.4462 18.0686 13.3652 17.2344 14.8671 15.6704C16.4112 14.1263 16.8904 11.959 16.8904 10.2063C16.8904 9.68498 16.8507 9.20336 16.7737 8.79622H8.90152ZM55.9979 17.7332V1.59668H53.6395V17.7332H55.9979ZM23.3525 18.0711C26.3961 18.0711 28.8762 15.735 28.8762 12.5647C28.8762 9.37221 26.3961 7.05847 23.3525 7.05847C20.3089 7.05847 17.8288 9.37221 17.8288 12.5647C17.8288 15.735 20.3089 18.0711 23.3525 18.0711ZM23.3525 9.22822C25.0208 9.22822 26.4582 10.5837 26.4582 12.5647C26.4582 14.5234 25.0208 15.9014 23.3525 15.9014C21.6842 15.9014 20.2468 14.5259 20.2468 12.5647C20.2468 10.5837 21.6842 9.22822 23.3525 9.22822ZM35.2688 18.0711C38.3124 18.0711 40.7924 15.735 40.7924 12.5647C40.7924 9.37221 38.3124 7.05847 35.2688 7.05847C32.2252 7.05847 29.7451 9.37469 29.7451 12.5647C29.7451 15.735 32.2252 18.0711 35.2688 18.0711ZM35.2688 9.22822C36.937 9.22822 38.3744 10.5837 38.3744 12.5647C38.3744 14.5234 36.937 15.9014 35.2688 15.9014C33.6005 15.9014 32.1631 14.5259 32.1631 12.5647C32.1631 10.5837 33.6005 9.22822 35.2688 9.22822ZM52.212 7.39362V17.2766C52.212 21.3431 49.8139 23.0039 46.9788 23.0039C44.3101 23.0039 42.7038 21.219 42.0981 19.7591L44.2033 18.8829C44.5782 19.7791 45.4967 20.8367 46.9763 20.8367C48.7911 20.8367 49.9156 19.7169 49.9156 17.6094V16.8174H49.8312C49.29 17.4852 48.2474 18.0686 46.9316 18.0686C44.1785 18.0686 41.6562 15.6705 41.6562 12.5847C41.6562 9.47647 44.1785 7.05847 46.9316 7.05847C48.2449 7.05847 49.2876 7.64187 49.8312 8.28981H49.9156V7.39362H52.212ZM50.0869 12.5847C50.0869 10.6458 48.7935 9.22822 47.1476 9.22822C45.4793 9.22822 44.0817 10.6458 44.0817 12.5847C44.0817 14.5036 45.4793 15.9014 47.1476 15.9014C48.7935 15.9014 50.0869 14.5036 50.0869 12.5847ZM65.1883 14.3771L67.0651 15.6284C66.4593 16.5246 64.9996 18.0688 62.4773 18.0688C59.3493 18.0688 57.0132 15.6508 57.0132 12.5625C57.0132 9.28796 59.3692 7.05615 62.2067 7.05615C65.0641 7.05615 66.4618 9.33017 66.9186 10.559L67.1693 11.1847L59.8086 14.2331C60.3721 15.3379 61.2485 15.9015 62.4773 15.9015C63.7087 15.9015 64.5627 15.2957 65.1883 14.3771ZM59.4114 12.3961L64.3318 10.353C64.0612 9.66531 63.2469 9.18618 62.2886 9.18618C61.0598 9.18618 59.3493 10.271 59.4114 12.3961Z" fill="#2D2D2D"/>
</svg>
