<svg width="530" height="30" viewBox="0 0 530 30" fill="none" xmlns="http://www.w3.org/2000/svg">
<path fill-rule="evenodd" clip-rule="evenodd" d="M17.8964 0.0152724C16.6312 0.137203 15.1458 0.87003 14.1036 1.88647C12.9887 2.97388 12.2353 4.48548 12.1032 5.9C12.0829 6.11723 12.0923 6.63412 12.1191 6.77853L12.1372 6.87609L12.2627 6.89392C12.446 6.91993 12.897 6.9043 13.1286 6.86391C14.0126 6.70978 14.9333 6.2747 15.7561 5.62221C16.0048 5.42493 16.4649 4.95935 16.6913 4.67562C17.021 4.26265 17.3009 3.82133 17.5268 3.35825C17.8559 2.68379 18.0509 2.04576 18.1575 1.29436C18.1883 1.07719 18.2025 0.400546 18.1799 0.225818C18.1487 -0.0154371 18.1546 -0.00134112 18.0855 0.000913052C18.0521 0.00199623 17.9671 0.00846601 17.8964 0.0152724ZM17.3296 7.25466C16.9889 7.27476 16.5269 7.34924 16.122 7.4493C15.589 7.58102 15.189 7.71696 14.2484 8.08607C13.4853 8.38554 13.2486 8.46896 12.9416 8.54669C12.5521 8.64528 12.2104 8.64282 11.7893 8.5384C11.4911 8.46445 11.2732 8.38698 10.4894 8.07622C9.73522 7.77716 9.46021 7.6776 9.10331 7.57437C8.23426 7.32302 7.54075 7.2671 6.66617 7.37784C5.72318 7.49725 4.81078 7.80977 3.98751 8.29536C2.38694 9.23942 1.19119 10.7641 0.547354 12.6819C0.0718258 14.0984 -0.0946613 15.7042 0.0510405 17.4688C0.184461 19.0846 0.579454 20.7996 1.19217 22.4236C1.58546 23.466 2.11734 24.5641 2.6456 25.4243C3.12856 26.2107 4.10198 27.5311 4.70675 28.2201C5.83166 29.5016 6.87497 30.0474 8.04071 29.9642C8.6545 29.9204 9.04368 29.811 9.98852 29.4168C10.598 29.1624 10.8526 29.0673 11.1678 28.9762C12.1211 28.7005 13.1981 28.6763 14.1313 28.9095C14.5218 29.0071 14.7466 29.0884 15.4121 29.3727C16.2375 29.7253 16.5537 29.8249 17.0734 29.8963C17.3042 29.928 17.799 29.9403 17.9956 29.9192C18.904 29.8219 19.7329 29.3709 20.5575 28.5253C21.0608 28.0093 21.5699 27.3606 22.3019 26.3025C23.1089 25.1361 23.8275 23.7122 24.2743 22.3943C24.4101 21.9938 24.411 21.99 24.3675 21.9765C24.2201 21.931 23.6563 21.6215 23.3602 21.4238C21.6686 20.2937 20.6473 18.6646 20.4266 16.7442C20.243 15.1469 20.5953 13.6277 21.45 12.331C21.9455 11.5794 22.6614 10.8627 23.4298 10.3491C23.5284 10.2832 23.6091 10.2222 23.6091 10.2135C23.6091 10.1888 23.4081 9.91983 23.2337 9.71114C22.0002 8.23559 20.2569 7.3877 18.1932 7.25962C17.971 7.24584 17.5229 7.24326 17.3296 7.25466Z" fill="#2D2D2D"/>
<path fill-rule="evenodd" clip-rule="evenodd" d="M111.874 6.57388C111.466 6.6837 109.218 7.28495 106.881 7.91001C104.543 8.53512 101.998 9.21569 101.227 9.42245C100.455 9.62921 98.3378 10.1956 96.522 10.6811C86.6706 13.3152 78.2398 15.571 77.1667 15.8598C75.7081 16.2524 75.1124 16.3394 74.154 16.2999C72.6693 16.2387 71.4591 15.7756 70.5901 14.936C69.6753 14.0523 69.2571 12.8977 69.3177 11.4236C69.3643 10.2916 69.6727 9.12775 70.2793 7.79438C70.4233 7.47797 70.5369 7.2152 70.5317 7.21042C70.5265 7.20559 70.2951 7.47545 70.0175 7.81006C66.7936 11.6949 64.8839 15.1119 64.4574 17.7584C64.3645 18.3348 64.3734 19.2754 64.4766 19.7817C64.6908 20.8326 65.2462 21.6288 66.2721 22.3556C68.3558 23.8316 70.9085 23.9909 74.3443 22.8593C75.6733 22.4216 77.298 21.7589 83.3365 19.1913C84.1649 18.839 85.6599 18.2039 86.6586 17.7798C87.6573 17.3556 88.5952 16.9565 88.7427 16.8926C88.8903 16.8288 90.1531 16.2895 91.549 15.6941C95.1513 14.1578 101.956 11.2484 109.646 7.95714C111.325 7.23819 112.735 6.61593 112.778 6.57437C112.875 6.48016 112.838 6.36704 112.711 6.37121C112.659 6.3729 112.283 6.4641 111.874 6.57388Z" fill="#2D2D2D"/>
<path fill-rule="evenodd" clip-rule="evenodd" d="M156.025 9.42753C154.753 9.52705 153.838 9.95681 153.355 10.6823C153.06 11.1257 152.933 11.5766 152.914 12.247C152.903 12.6272 152.922 12.8584 152.987 13.1378C153.147 13.8299 153.61 14.3944 154.506 14.9881C154.825 15.1999 155.05 15.3322 155.792 15.7454C156.722 16.263 157.002 16.45 157.305 16.7533C157.527 16.9755 157.625 17.1321 157.675 17.3458C157.735 17.5997 157.697 17.9536 157.583 18.1931C157.425 18.5261 157.129 18.6826 156.658 18.682C156.114 18.6813 155.755 18.4407 155.64 17.9996C155.617 17.9111 155.611 17.7675 155.611 17.3113V16.7348H154.222H152.833V17.2168C152.833 17.7361 152.852 18.0131 152.909 18.2908C153.138 19.4029 153.924 20.128 155.215 20.416C156.141 20.6226 157.336 20.5998 158.202 20.3591C158.746 20.208 159.181 19.9729 159.519 19.6478C159.959 19.2242 160.173 18.7649 160.268 18.0385C160.314 17.6848 160.314 16.9374 160.267 16.6396C160.141 15.8326 159.676 15.2271 158.682 14.578C158.353 14.3631 158.06 14.1951 157.315 13.7939C156.396 13.2997 156.062 13.0822 155.82 12.8203C155.626 12.6111 155.554 12.4193 155.554 12.1131C155.554 11.5252 155.908 11.1768 156.505 11.1778C156.911 11.1784 157.208 11.3288 157.358 11.6108C157.461 11.8029 157.476 11.9013 157.476 12.3519V12.7571H158.77H160.065L160.064 12.3622C160.064 11.5929 159.999 11.2128 159.797 10.8084C159.418 10.05 158.623 9.59962 157.408 9.45475C157.108 9.41895 156.33 9.40365 156.025 9.42753ZM189.697 9.48423C188.303 9.59277 187.355 10.0846 186.913 10.9283C186.82 11.1053 186.726 11.3571 186.682 11.5448C186.56 12.0706 186.564 12.7544 186.69 13.2363C186.86 13.8837 187.356 14.4618 188.232 15.0307C188.494 15.2008 188.769 15.3618 189.337 15.678C189.614 15.8317 189.969 16.0349 190.128 16.1296C190.776 16.5175 191.145 16.8624 191.279 17.2061C191.338 17.358 191.351 17.701 191.306 17.9096C191.221 18.2969 191.016 18.5159 190.649 18.6124C190.483 18.6559 190.131 18.6564 189.969 18.6134C189.697 18.541 189.47 18.3704 189.368 18.1619C189.276 17.9734 189.26 17.8427 189.26 17.2534L189.26 16.7158H187.887H186.515L186.525 17.339C186.533 17.8554 186.541 17.9983 186.573 18.1717C186.779 19.2845 187.506 20.012 188.724 20.3245C189.687 20.5716 190.96 20.5589 191.878 20.2931C192.425 20.1345 192.818 19.9143 193.164 19.5713C193.709 19.0314 193.912 18.4079 193.911 17.2772C193.911 16.7988 193.89 16.6033 193.807 16.2991C193.646 15.7057 193.116 15.1043 192.276 14.5608C191.996 14.3796 191.664 14.1901 190.986 13.8255C190.036 13.3141 189.711 13.1028 189.469 12.8381C189.234 12.5822 189.155 12.2715 189.231 11.9105C189.327 11.4609 189.655 11.2163 190.164 11.2161C190.545 11.216 190.848 11.3739 190.998 11.6517C191.095 11.8289 191.109 11.9152 191.119 12.3622L191.129 12.7762H192.402H193.675V12.3392C193.675 12.0988 193.665 11.8141 193.654 11.7064C193.517 10.4359 192.645 9.70176 191.049 9.51276C190.74 9.47622 190.001 9.46061 189.697 9.48423ZM220.957 9.47656C220.716 9.50071 220.317 9.56681 220.115 9.6164C219.509 9.76476 219.055 10.0053 218.681 10.3774C218.248 10.8077 218.035 11.2683 217.919 12.0244C217.886 12.2386 217.872 17.2157 217.903 17.6103C217.931 17.9699 217.965 18.163 218.045 18.4191C218.446 19.7016 219.786 20.4006 221.737 20.3447C223.716 20.2881 224.915 19.4749 225.154 18.029C225.218 17.6431 225.23 17.2884 225.23 15.7749V14.2987H223.393H221.557V15.06V15.8213H222.09H222.622L222.622 16.7205C222.622 17.7025 222.614 17.7915 222.515 17.9744C222.343 18.2895 222.032 18.4621 221.604 18.4805C221.032 18.5049 220.625 18.2474 220.496 17.7795C220.465 17.6658 220.462 17.4801 220.462 14.9553C220.462 12.4092 220.464 12.2442 220.497 12.1052C220.617 11.5939 220.977 11.3239 221.538 11.3239C221.88 11.3239 222.114 11.4091 222.311 11.6049C222.541 11.8344 222.584 11.9842 222.598 12.6096L222.608 13.0616H223.909H225.211V12.7313C225.211 11.5874 224.999 10.9253 224.46 10.3875C223.991 9.92046 223.407 9.66124 222.499 9.51807C222.294 9.48586 222.145 9.47819 221.642 9.47401C221.307 9.47123 220.999 9.47237 220.957 9.47656ZM196.328 9.75661C196.323 9.77083 196.322 11.5887 196.326 13.7963C196.332 17.3728 196.336 17.8321 196.363 18.0125C196.47 18.7114 196.676 19.1515 197.089 19.5613C197.642 20.1089 198.404 20.3807 199.579 20.4489C200.372 20.4948 201.181 20.4019 201.777 20.1966C202.875 19.8177 203.474 19.0279 203.571 17.8311C203.584 17.6719 203.591 16.2065 203.591 13.6584V9.73105H202.287H200.984L200.979 13.7706L200.974 17.8101L200.931 17.9352C200.823 18.2526 200.611 18.4565 200.288 18.5549C200.116 18.6071 199.759 18.6018 199.595 18.5445C199.302 18.4426 199.12 18.2663 198.997 17.967L198.956 17.8672L198.947 13.8039L198.937 9.74057L197.638 9.73568C196.558 9.7316 196.337 9.73514 196.328 9.75661ZM163.901 9.80242C163.868 9.96033 162.006 20.094 162.006 20.1156C162.006 20.1372 162.237 20.1415 163.394 20.1415H164.783L164.794 20.0796C164.816 19.9523 166.193 10.744 166.193 10.7233C166.193 10.7114 166.21 10.7017 166.231 10.7017C166.252 10.7017 166.269 10.7124 166.269 10.7255C166.269 10.7488 167.609 19.9569 167.63 20.0796L167.641 20.1415H169.03H170.419L170.409 20.0987C170.396 20.0444 168.515 9.77509 168.515 9.76072C168.515 9.75488 167.479 9.75008 166.213 9.75008H163.912L163.901 9.80242ZM172.714 9.88799C172.704 10.0099 172.49 19.822 172.492 20.0511L172.492 20.1415H173.787H175.081L175.081 19.3469C175.081 17.3742 175.14 10.8066 175.157 10.7893C175.167 10.7791 175.18 10.776 175.187 10.7823C175.193 10.7886 175.583 12.8778 176.053 15.4248C176.523 17.9719 176.912 20.0751 176.918 20.0987L176.928 20.1415H178.238H179.548L179.568 20.0416C179.579 19.9866 179.966 17.8862 180.43 15.374C180.893 12.8618 181.279 10.7982 181.288 10.7883C181.298 10.7769 181.31 10.7769 181.321 10.7883C181.333 10.8018 181.403 18.9107 181.4 19.9655L181.399 20.1415H182.694H183.989L183.978 19.8037C183.972 19.6179 183.925 17.4618 183.873 15.0124C183.822 12.563 183.774 10.377 183.768 10.1545L183.755 9.75008L181.649 9.7501L179.544 9.75014L178.906 13.7206C178.306 17.4642 178.256 17.7505 178.213 17.703C178.21 17.6991 177.92 15.9102 177.57 13.7277L176.934 9.7596L174.829 9.75476L172.724 9.74991L172.714 9.88799ZM206.483 14.8982V20.0463H207.749H209.015L209.015 19.8132C209.014 19.685 208.984 17.8244 208.948 15.6785C208.912 13.5327 208.882 11.732 208.882 11.6771C208.881 11.5201 208.927 11.5453 208.984 11.7342C209.01 11.8205 209.272 12.6877 209.566 13.6611C209.86 14.6346 210.415 16.4696 210.798 17.7388L211.495 20.0465L213.333 20.0417L215.171 20.0368L215.176 14.8935L215.181 9.75008H213.896H212.611L212.622 10.1355C212.628 10.3475 212.657 12.0368 212.688 13.8895C212.718 15.7423 212.747 17.4059 212.753 17.5865C212.761 17.8891 212.759 17.9148 212.729 17.9148C212.701 17.9148 212.501 17.2464 211.518 13.8657C210.871 11.6388 210.337 9.8017 210.332 9.78339C210.324 9.75195 210.216 9.75008 208.403 9.75008H206.483V14.8982Z" fill="#2D2D2D"/>
<path fill-rule="evenodd" clip-rule="evenodd" d="M273.902 11.7962V14.1323L279.485 14.1299C279.313 15.4183 278.879 16.3616 278.219 17.0219C277.404 17.8362 276.133 18.7324 273.902 18.7324C270.461 18.7324 267.77 15.9594 267.77 12.5187C267.77 9.07783 270.461 6.30483 273.902 6.30483C275.758 6.30483 277.114 7.0347 278.114 7.9731L279.763 6.32469C278.368 4.99156 276.511 3.96875 273.904 3.96875C269.192 3.96875 265.23 7.80677 265.23 12.5187C265.23 17.2306 269.192 21.0686 273.904 21.0686C276.446 21.0686 278.365 20.2344 279.867 18.6704C281.411 17.1263 281.89 14.959 281.89 13.2063C281.89 12.685 281.851 12.2034 281.774 11.7962H273.902ZM320.998 20.7332V4.59668H318.639V20.7332H320.998ZM288.352 21.0711C291.396 21.0711 293.876 18.735 293.876 15.5647C293.876 12.3722 291.396 10.0585 288.352 10.0585C285.309 10.0585 282.829 12.3722 282.829 15.5647C282.829 18.735 285.309 21.0711 288.352 21.0711ZM288.352 12.2282C290.021 12.2282 291.458 13.5837 291.458 15.5647C291.458 17.5234 290.021 18.9014 288.352 18.9014C286.684 18.9014 285.247 17.5259 285.247 15.5647C285.247 13.5837 286.684 12.2282 288.352 12.2282ZM300.269 21.0711C303.312 21.0711 305.792 18.735 305.792 15.5647C305.792 12.3722 303.312 10.0585 300.269 10.0585C297.225 10.0585 294.745 12.3747 294.745 15.5647C294.745 18.735 297.225 21.0711 300.269 21.0711ZM300.269 12.2282C301.937 12.2282 303.374 13.5837 303.374 15.5647C303.374 17.5234 301.937 18.9014 300.269 18.9014C298.6 18.9014 297.163 17.5259 297.163 15.5647C297.163 13.5837 298.6 12.2282 300.269 12.2282ZM317.212 10.3936V20.2766C317.212 24.3431 314.814 26.0039 311.979 26.0039C309.31 26.0039 307.704 24.219 307.098 22.7591L309.203 21.8829C309.578 22.7791 310.497 23.8367 311.976 23.8367C313.791 23.8367 314.916 22.7169 314.916 20.6094V19.8174H314.831C314.29 20.4852 313.247 21.0686 311.932 21.0686C309.178 21.0686 306.656 18.6705 306.656 15.5847C306.656 12.4765 309.178 10.0585 311.932 10.0585C313.245 10.0585 314.288 10.6419 314.831 11.2898H314.916V10.3936H317.212ZM315.087 15.5847C315.087 13.6458 313.793 12.2282 312.148 12.2282C310.479 12.2282 309.082 13.6458 309.082 15.5847C309.082 17.5036 310.479 18.9014 312.148 18.9014C313.793 18.9014 315.087 17.5036 315.087 15.5847ZM330.188 17.3771L332.065 18.6284C331.459 19.5246 330 21.0688 327.477 21.0688C324.349 21.0688 322.013 18.6508 322.013 15.5625C322.013 12.288 324.369 10.0561 327.207 10.0561C330.064 10.0561 331.462 12.3302 331.919 13.559L332.169 14.1847L324.809 17.2331C325.372 18.3379 326.248 18.9015 327.477 18.9015C328.709 18.9015 329.563 18.2957 330.188 17.3771ZM324.411 15.3961L329.332 13.353C329.061 12.6653 328.247 12.1862 327.289 12.1862C326.06 12.1862 324.349 13.271 324.411 15.3961Z" fill="#2D2D2D"/>
<path fill-rule="evenodd" clip-rule="evenodd" d="M393.927 2.69145C392.259 3.64937 390.878 4.43922 390.858 4.44666C390.838 4.4541 392.746 7.80332 395.098 11.8894L399.374 19.3186H403.483H407.592L407.493 19.1419C407.262 18.7322 397.051 1.08353 397.007 1.01976C396.965 0.95769 396.617 1.1465 393.927 2.69145ZM386.883 9.16007C385.202 10.1286 383.832 10.9411 383.838 10.9655C383.845 10.9899 384.934 12.8841 386.26 15.1747L388.67 19.3394L388.67 20.202L388.67 21.0646H389.543H390.416V20.1919V19.3191L393.618 19.3085L396.82 19.2978L393.385 13.3532C391.497 10.0836 389.948 7.40639 389.945 7.40382C389.941 7.4012 388.563 8.19155 386.883 9.16007ZM379.693 15.453C378.037 16.4124 376.668 17.2117 376.651 17.2291C376.634 17.2466 376.884 17.7238 377.208 18.2897L377.796 19.3186H381.887C385.142 19.3186 385.973 19.308 385.957 19.2667C385.908 19.1388 382.769 13.7281 382.739 13.7189C382.72 13.7132 381.35 14.4935 379.693 15.453ZM386.051 20.7955V22.2723L385.75 22.1074C384.688 21.5265 383.413 21.5108 382.289 22.0648C381.555 22.4265 381.026 22.9493 380.67 23.6628C380.371 24.2634 380.295 24.5957 380.299 25.2841C380.303 25.9793 380.383 26.3355 380.665 26.9053C381.284 28.1563 382.572 28.9625 383.952 28.9625C384.547 28.9625 385.128 28.8161 385.707 28.5207L386.051 28.3451V28.571V28.7968H386.924H387.797V24.0577V19.3186H386.924H386.051V20.7955ZM396.86 20.7892V22.2598L396.558 22.0991C395.275 21.4147 393.687 21.5411 392.534 22.4196C391.855 22.9361 391.359 23.7204 391.182 24.5556C391.113 24.8786 391.106 25.5661 391.167 25.9104C391.514 27.8696 393.32 29.1885 395.295 28.9248C395.712 28.8691 396.366 28.6496 396.661 28.4664L396.86 28.343V28.5699V28.7968H397.733H398.606V24.0577V19.3186H397.733H396.86V20.7892ZM375.34 21.6877C373.938 21.8858 372.765 22.8609 372.341 24.1824C371.797 25.8734 372.582 27.7496 374.168 28.5508C375.247 29.0955 376.446 29.0965 377.54 28.5535L377.945 28.3522V28.5745V28.7968H378.797H379.649V25.2633V21.7297H378.797H377.945V21.9965V22.2634L377.55 22.0624C377.313 21.9417 377.009 21.8272 376.79 21.7756C376.365 21.6758 375.707 21.6359 375.34 21.6877ZM402.335 21.6891C401.426 21.8327 400.521 22.3482 399.981 23.0292C399.702 23.381 399.466 23.8367 399.328 24.2864C399.225 24.6229 399.214 24.7211 399.215 25.2633C399.217 25.9608 399.292 26.3125 399.556 26.8638C400.035 27.8632 400.903 28.5709 402.015 28.8677C402.397 28.9699 403.342 28.9677 403.733 28.8637C404.092 28.7681 404.441 28.6267 404.713 28.4666L404.924 28.3417V28.5693V28.7968H405.797H406.67V25.2633V21.7297H405.797H404.924V22.005C404.924 22.2202 404.913 22.2711 404.873 22.2379C404.726 22.1182 404.113 21.853 403.806 21.7762C403.404 21.6759 402.688 21.6334 402.335 21.6891ZM410.017 21.6739C408.752 21.8241 407.897 22.4123 407.62 23.3239C407.548 23.5591 407.536 23.6832 407.552 24.0398C407.57 24.4349 407.584 24.4977 407.727 24.7868C408.106 25.5538 408.657 25.8279 410.395 26.1148C411.247 26.2554 411.534 26.3481 411.699 26.5354C411.96 26.8335 411.802 27.2716 411.347 27.5052C411.159 27.6017 411.093 27.612 410.661 27.612C410.287 27.612 410.135 27.5941 409.961 27.5298C409.557 27.3799 409.285 27.0666 409.223 26.6805L409.196 26.5104H408.286H407.377V26.6472C407.377 26.8685 407.493 27.2512 407.653 27.5543C408.154 28.5083 409.366 29.0295 410.893 28.9478C412.604 28.8563 413.607 28.0855 413.723 26.7727C413.82 25.6707 413.094 24.8678 411.735 24.5765C411.476 24.5209 411.002 24.429 410.682 24.3723C409.955 24.2436 409.702 24.1626 409.516 23.9992C409.331 23.8371 409.29 23.6371 409.396 23.4131C409.454 23.2921 409.523 23.2317 409.702 23.1478C409.916 23.0475 409.977 23.0392 410.495 23.0392C411.032 23.0392 411.065 23.0442 411.25 23.1532C411.482 23.2893 411.614 23.488 411.653 23.7564L411.681 23.9538L412.564 23.965C413.572 23.9778 413.49 24.0183 413.383 23.5627C413.254 23.0181 412.818 22.4249 412.328 22.1269C411.753 21.7777 410.768 21.5847 410.017 21.6739ZM388.67 25.2633V28.7968H389.543H390.416V25.2633V21.7297H389.543H388.67V25.2633ZM376.41 23.3349C377.21 23.5724 377.785 24.2197 377.91 25.0253C378.006 25.6435 377.79 26.245 377.305 26.7109C376.358 27.6197 374.876 27.4426 374.159 26.3349C373.94 25.9954 373.857 25.6526 373.878 25.1721C373.893 24.8289 373.913 24.744 374.047 24.4624C374.477 23.5555 375.503 23.066 376.41 23.3349ZM384.516 23.3342C384.89 23.4441 385.206 23.6378 385.468 23.9172C386.248 24.7517 386.225 25.9299 385.411 26.7109C384.62 27.4704 383.429 27.4902 382.627 26.7573C382.243 26.4063 382.043 26.0261 381.977 25.5198C381.853 24.5663 382.523 23.5905 383.478 23.3337C383.779 23.2528 384.24 23.253 384.516 23.3342ZM395.576 23.41C396.348 23.7234 396.86 24.4787 396.86 25.3048C396.86 26.278 396.151 27.0965 395.162 27.266C394.514 27.3772 393.888 27.1694 393.413 26.6861C392.968 26.2334 392.806 25.8087 392.834 25.1682C392.849 24.8311 392.87 24.7431 392.999 24.472C393.257 23.9315 393.673 23.5587 394.24 23.3598C394.618 23.2272 395.177 23.2482 395.576 23.41ZM403.431 23.3349C403.801 23.4447 404.055 23.5964 404.321 23.8656C404.971 24.5243 405.107 25.4082 404.686 26.239C404.53 26.5458 404.111 26.944 403.781 27.0985C402.437 27.7277 400.889 26.7379 400.893 25.2508C400.894 24.4028 401.564 23.5648 402.43 23.3252C402.696 23.2518 403.166 23.2563 403.431 23.3349Z" fill="#2D2D2D"/>
<path fill-rule="evenodd" clip-rule="evenodd" d="M491.544 11.0204L491.544 11.1461C491.545 12.0128 491.546 12.7487 491.104 13.53C490.729 14.1956 490.133 14.605 489.474 14.605C488.57 14.605 488.04 13.9127 488.04 12.8909C488.04 10.8739 489.838 10.5078 491.544 10.5078V11.0204ZM493.919 16.7884C493.763 16.9282 493.538 16.9382 493.363 16.845C492.697 16.2898 492.495 15.9877 492.186 15.5264L492.186 15.5263C492.132 15.4456 492.075 15.36 492.011 15.2673C490.72 16.592 489.802 16.9881 488.129 16.9881C486.145 16.9881 484.605 15.7599 484.605 13.3003C484.605 11.3798 485.639 10.0718 487.116 9.43278C488.188 8.95838 489.616 8.81154 490.854 8.68428C491.092 8.65975 491.324 8.63596 491.544 8.61068V8.30448C491.544 8.24721 491.545 8.18887 491.545 8.12976V8.12973C491.549 7.60828 491.554 7.02684 491.256 6.59039C490.971 6.15438 490.421 5.97465 489.935 5.97465C489.037 5.97465 488.239 6.43728 488.043 7.39584C488.003 7.60886 487.848 7.81854 487.633 7.82853L485.35 7.58223C485.158 7.53896 484.943 7.38253 484.999 7.08631C485.523 4.30383 488.027 3.46509 490.266 3.46509C491.412 3.46509 492.909 3.77129 493.813 4.64332C494.867 5.63161 494.859 6.92368 494.851 8.33853V8.3397C494.851 8.46352 494.85 8.58828 494.85 8.71386V12.4016C494.85 13.3912 495.214 13.8846 495.599 14.4054C495.645 14.4679 495.691 14.5308 495.738 14.595C495.887 14.808 495.92 15.0643 495.728 15.2241C495.247 15.6268 494.393 16.3757 493.922 16.795L493.919 16.7884ZM467.123 16.8216H469.478C469.729 16.8216 469.932 16.6253 469.932 16.3823V9.9453L469.931 9.79212C469.929 8.40375 469.926 6.59701 471.558 6.59701C473.06 6.59701 473.034 8.2045 473.013 9.51338V9.51348V9.51357V9.51367V9.51378C473.011 9.66241 473.009 9.80717 473.009 9.9453L473.012 16.3823C473.012 16.6153 473.197 16.805 473.436 16.8216H475.788C476.039 16.8216 476.241 16.6253 476.241 16.3823V9.9453L476.241 9.77826C476.239 9.09889 476.237 8.18343 476.46 7.6188C476.702 7.00639 477.298 6.62363 477.868 6.62363C478.55 6.62363 479.077 6.85329 479.252 7.66873C479.343 8.05987 479.33 8.96423 479.322 9.5695C479.32 9.71619 479.318 9.84531 479.318 9.9453V16.3823C479.318 16.6153 479.507 16.805 479.742 16.8216H482.094C482.346 16.8216 482.548 16.6253 482.548 16.3823L482.551 8.71715C482.551 8.53015 482.554 8.33937 482.558 8.14673C482.576 6.99872 482.596 5.78452 481.958 4.90955C481.299 3.99093 480.219 3.58154 479.232 3.58154C477.844 3.58154 476.549 4.29713 475.98 5.83149C475.317 4.29713 474.396 3.58154 472.922 3.58154C471.472 3.58154 470.395 4.29713 469.822 5.83149H469.779V4.24388C469.763 4.02421 469.58 3.8478 469.352 3.83782H467.156C466.904 3.83782 466.702 4.03087 466.702 4.27384V16.4189C466.719 16.6352 466.898 16.805 467.123 16.8216ZM497.715 5.98129V4.2439C497.715 3.98097 497.914 3.80457 498.152 3.80457H505.893C506.141 3.80457 506.34 3.98429 506.34 4.2439V5.73167C506.337 5.98129 506.128 6.30747 505.757 6.82336L501.746 12.578C503.237 12.5414 504.81 12.7644 506.161 13.5299C506.466 13.703 506.549 13.956 506.572 14.2056V16.0595C506.572 16.3124 506.294 16.6086 506.002 16.4555C503.621 15.2008 500.458 15.0643 497.824 16.4689C497.556 16.6153 497.275 16.3224 497.275 16.0695V14.3088C497.275 14.0259 497.278 13.5433 497.559 13.1139L502.206 6.4173H498.162C497.914 6.4173 497.715 6.2409 497.715 5.98129ZM497.64 19.1953C499.076 19.0242 502.216 18.6498 502.776 19.3713C503.342 20.0997 502.148 23.0953 501.614 24.4345V24.4346L501.613 24.437C501.451 24.843 501.799 25.0061 502.163 24.6999C504.538 22.7063 505.148 18.5292 504.664 17.9268C504.18 17.3277 500.034 16.8118 497.506 18.5991C497.115 18.872 497.182 19.2515 497.616 19.1982L497.64 19.1953ZM484.589 26.5072C490.107 26.5072 496.516 24.7599 500.938 21.4848C501.67 20.9389 501.044 20.1268 500.295 20.4463C495.34 22.5598 489.951 23.5783 485.052 23.5783C477.789 23.5783 470.757 21.578 465.07 18.253C464.573 17.9601 464.202 18.4726 464.616 18.8487C469.886 23.6316 476.851 26.5072 484.589 26.5072ZM513.004 3.58154C516.499 3.58154 518.39 6.59701 518.39 10.4312C518.39 14.1357 516.3 17.0746 513.004 17.0746C509.573 17.0746 507.705 14.0591 507.705 10.3014C507.705 6.52046 509.596 3.58154 513.004 3.58154ZM513.024 6.06115C511.289 6.06115 511.179 8.43757 511.179 9.91868V9.97319C511.179 11.4792 511.179 14.5717 513.004 14.5717C514.83 14.5717 514.916 12.0155 514.916 10.4579C514.916 9.43274 514.873 8.20792 514.565 7.23605C514.3 6.39065 513.773 6.06115 513.024 6.06115ZM520.576 16.8216H522.921C523.173 16.8216 523.378 16.6253 523.381 16.3823V9.84212C523.381 9.02336 523.424 8.28447 523.756 7.54225C524.017 6.95647 524.544 6.57038 525.117 6.57038C526.618 6.57038 526.604 8.22613 526.593 9.52536V9.52753C526.592 9.63524 526.591 9.74048 526.591 9.84212V16.4389C526.614 16.6452 526.793 16.805 527.008 16.8216H529.37C529.602 16.8216 529.797 16.6519 529.824 16.4389V8.7937C529.824 7.6188 529.824 5.9846 529.208 5.01272C528.545 3.9643 527.515 3.58154 526.458 3.58154C524.832 3.58154 523.908 4.37369 523.249 6.03452H523.206V4.17731C523.159 3.9876 522.99 3.8478 522.785 3.83782H520.602C520.364 3.83782 520.168 4.0109 520.149 4.23389L520.152 16.3823C520.152 16.6153 520.341 16.805 520.576 16.8216ZM460.671 11.1462C460.671 11.1046 460.671 11.0627 460.671 11.0205V10.5079C458.968 10.5079 457.17 10.8741 457.17 12.891C457.17 13.9128 457.696 14.6051 458.6 14.6051C459.263 14.6051 459.856 14.1957 460.23 13.5301C460.673 12.7488 460.672 12.0129 460.671 11.1462ZM462.489 16.8451C462.665 16.9383 462.89 16.9283 463.045 16.7885L463.052 16.7952C463.522 16.3758 464.377 15.6269 464.857 15.2242C465.049 15.0644 465.016 14.8082 464.864 14.5951C464.818 14.5309 464.771 14.468 464.725 14.4055C464.341 13.8847 463.976 13.3913 463.976 12.4018V8.71398C463.976 8.588 463.977 8.46285 463.978 8.33864C463.986 6.9238 463.993 5.63173 462.939 4.64344C462.035 3.77142 460.538 3.46521 459.392 3.46521C457.153 3.46521 454.652 4.30395 454.126 7.08643C454.073 7.38265 454.285 7.53908 454.477 7.58235L456.762 7.82865C456.974 7.81866 457.13 7.60898 457.17 7.39596C457.365 6.43741 458.167 5.97477 459.064 5.97477C459.548 5.97477 460.098 6.1545 460.386 6.59051C460.68 7.02658 460.676 7.60738 460.672 8.12847C460.671 8.18807 460.671 8.24687 460.671 8.3046V8.6108C460.45 8.63608 460.219 8.65987 459.98 8.6844C458.742 8.81166 457.314 8.9585 456.242 9.4329C454.768 10.0719 453.731 11.38 453.731 13.3004C453.731 15.7601 455.275 16.9882 457.256 16.9882C458.932 16.9882 459.846 16.5921 461.138 15.2675C461.206 15.366 461.267 15.4565 461.324 15.5416C461.628 15.9945 461.831 16.296 462.489 16.8451Z" fill="#2D2D2D"/>
</svg>
