<svg width="49" height="18" viewBox="0 0 49 18" fill="none" xmlns="http://www.w3.org/2000/svg">
<path fill-rule="evenodd" clip-rule="evenodd" d="M47.8742 0.57388C47.4656 0.683697 45.2185 1.28495 42.8806 1.91001C40.5427 2.53512 37.9984 3.21569 37.2267 3.42245C36.455 3.62921 34.3378 4.19559 32.522 4.68112C22.6706 7.31522 14.2398 9.57096 13.1667 9.8598C11.7081 10.2524 11.1124 10.3394 10.154 10.2999C8.66933 10.2387 7.45915 9.77561 6.59006 8.93599C5.67532 8.05233 5.25706 6.89766 5.31772 5.4236C5.36432 4.29158 5.67268 3.12775 6.27934 1.79438C6.42329 1.47797 6.53686 1.2152 6.5317 1.21042C6.52654 1.20559 6.29515 1.47545 6.01749 1.81006C2.79361 5.69494 0.883875 9.11188 0.457357 11.7584C0.364459 12.3348 0.373415 13.2754 0.476588 13.7817C0.690776 14.8326 1.24618 15.6288 2.27213 16.3556C4.35582 17.8316 6.90849 17.9909 10.3443 16.8593C11.6733 16.4216 13.298 15.7589 19.3365 13.1913C20.1649 12.839 21.6599 12.2039 22.6586 11.7798C23.6573 11.3556 24.5952 10.9565 24.7427 10.8926C24.8903 10.8288 26.1531 10.2895 27.549 9.69411C31.1513 8.15777 37.9563 5.24837 45.6456 1.95714C47.3253 1.23819 48.7346 0.615931 48.7775 0.574373C48.8747 0.480155 48.8378 0.367037 48.7111 0.371206C48.6594 0.372898 48.2827 0.464103 47.8742 0.57388Z" fill="#2D2D2D"/>
</svg>
