<svg width="74" height="12" viewBox="0 0 74 12" fill="none" xmlns="http://www.w3.org/2000/svg">
<path fill-rule="evenodd" clip-rule="evenodd" d="M4.02506 0.427531C2.75261 0.527049 1.83818 0.956808 1.35521 1.68227C1.06005 2.12565 0.932837 2.57659 0.913805 3.24705C0.903014 3.62715 0.921912 3.85841 0.986583 4.13776C1.14683 4.82993 1.61024 5.39436 2.50575 5.98814C2.82518 6.19992 3.04977 6.33216 3.79198 6.7454C4.72161 7.26297 5.00241 7.44999 5.3053 7.75327C5.52721 7.97546 5.62505 8.1321 5.67543 8.34577C5.73529 8.59973 5.69665 8.95357 5.58292 9.19307C5.42476 9.52609 5.12866 9.68261 4.65793 9.68202C4.11411 9.68133 3.75519 9.44065 3.64031 8.99961C3.61725 8.91107 3.61118 8.7675 3.61118 8.31126V7.73479H2.22185H0.83252V8.21679C0.83252 8.73611 0.852332 9.01314 0.909332 9.29082C1.13766 10.4029 1.92442 11.128 3.21522 11.416C4.14106 11.6226 5.3356 11.5998 6.20212 11.3591C6.74594 11.208 7.18123 10.9729 7.51901 10.6478C7.95914 10.2242 8.17282 9.76486 8.26767 9.03847C8.31388 8.68476 8.31363 7.93736 8.26723 7.63963C8.14145 6.8326 7.67586 6.22706 6.68207 5.57798C6.35306 5.36309 6.06003 5.1951 5.31453 4.79394C4.39603 4.29972 4.06217 4.08224 3.81971 3.82029C3.62612 3.61111 3.55408 3.41934 3.55408 3.1131C3.55408 2.52519 3.90819 2.17683 4.50491 2.17776C4.91147 2.17839 5.20793 2.32884 5.35823 2.61081C5.46062 2.80292 5.4763 2.90132 5.4763 3.35193V3.75712H6.77047H8.06464L8.06447 3.36221C8.06416 2.59287 7.99864 2.21282 7.79663 1.80845C7.41771 1.05001 6.62314 0.599617 5.40847 0.454747C5.10834 0.418948 4.33041 0.403646 4.02506 0.427531ZM37.6973 0.484227C36.3031 0.592766 35.3548 1.08455 34.9127 1.92827C34.8199 2.10531 34.7258 2.35714 34.6823 2.54483C34.5604 3.0706 34.5635 3.7544 34.6899 4.23629C34.8597 4.88372 35.3564 5.46179 36.2318 6.03073C36.4935 6.2008 36.7685 6.36183 37.3372 6.67796C37.6138 6.83169 37.9694 7.03491 38.1276 7.12955C38.7759 7.51752 39.1447 7.86236 39.279 8.20609C39.3384 8.35803 39.3513 8.70102 39.3056 8.90963C39.2207 9.29691 39.0161 9.51589 38.6489 9.61243C38.4835 9.6559 38.1306 9.65644 37.969 9.61342C37.6968 9.54103 37.4697 9.37041 37.3678 9.16186C37.2758 8.97344 37.2602 8.84275 37.2599 8.25341L37.2596 7.71576H35.8872H34.5148L34.5246 8.33905C34.5327 8.8554 34.541 8.99826 34.5732 9.17169C34.7795 10.2845 35.5063 11.012 36.724 11.3245C37.687 11.5716 38.9599 11.5589 39.8776 11.2931C40.4251 11.1345 40.8176 10.9143 41.1637 10.5713C41.7087 10.0314 41.9118 9.4079 41.9109 8.2772C41.9105 7.79875 41.8898 7.60333 41.807 7.29905C41.6456 6.70568 41.116 6.10434 40.2761 5.56077C39.9961 5.37957 39.6637 5.19007 38.9864 4.82552C38.0362 4.31415 37.7114 4.10282 37.4689 3.83812C37.2344 3.58224 37.1548 3.27151 37.2313 2.91053C37.3265 2.46088 37.6549 2.21632 38.1636 2.21615C38.5451 2.21603 38.8477 2.37392 38.9984 2.65169C39.0946 2.82894 39.1093 2.91525 39.1195 3.36221L39.1289 3.77615H40.4019H41.675V3.33916C41.675 3.09883 41.6655 2.81405 41.6539 2.70635C41.5171 1.43592 40.6451 0.701762 39.0486 0.512757C38.7398 0.476215 38.0007 0.460609 37.6973 0.484227ZM68.9572 0.476557C68.7156 0.500709 68.3175 0.566807 68.1148 0.616404C67.5085 0.764758 67.0552 1.00534 66.6809 1.37738C66.2478 1.80772 66.0348 2.26828 65.9191 3.02439C65.8863 3.23862 65.8716 8.21574 65.9025 8.61025C65.9308 8.9699 65.9648 9.163 66.0449 9.41911C66.4459 10.7016 67.7864 11.4006 69.7375 11.3447C71.7155 11.2881 72.9154 10.4749 73.1542 9.02896C73.2179 8.64308 73.2298 8.28844 73.2298 6.77488V5.29871H71.3933H69.5567V6.05998V6.82126H70.0896H70.6225L70.6221 7.72051C70.6218 8.70252 70.6142 8.79146 70.5146 8.97443C70.3431 9.28948 70.0325 9.46214 69.6043 9.48047C69.0324 9.50494 68.6252 9.24739 68.496 8.77954C68.4646 8.66585 68.4623 8.48008 68.4623 5.95531C68.4623 3.40918 68.4643 3.24423 68.497 3.1052C68.6169 2.59391 68.9765 2.32394 69.5377 2.32394C69.8799 2.32394 70.1141 2.40906 70.3107 2.60491C70.5411 2.83442 70.584 2.98422 70.598 3.60963L70.6082 4.06163H71.9095H73.2108V3.73133C73.2108 2.58744 72.9986 1.92528 72.4596 1.38752C71.9914 0.920457 71.4069 0.661243 70.4988 0.518066C70.2945 0.485864 70.1451 0.478194 69.6423 0.474007C69.3074 0.471229 68.999 0.47237 68.9572 0.476557ZM44.3284 0.756612C44.323 0.770829 44.3217 2.58866 44.3255 4.79626C44.3318 8.37277 44.3359 8.83215 44.3633 9.01251C44.4695 9.7114 44.6758 10.1515 45.0892 10.5613C45.6416 11.1089 46.4042 11.3807 47.5794 11.4489C48.3719 11.4948 49.1809 11.4019 49.7766 11.1966C50.8752 10.8177 51.4743 10.0279 51.5708 8.83112C51.5836 8.67188 51.5906 7.2065 51.5906 4.65838V0.731052H50.2872H48.9839L48.9788 4.77057L48.9737 8.81009L48.9312 8.93517C48.8232 9.2526 48.6115 9.45649 48.2877 9.55488C48.1159 9.60711 47.7587 9.60176 47.5946 9.54453C47.3024 9.44261 47.1201 9.26632 46.9973 8.96701L46.9563 8.86718L46.9468 4.80388L46.9373 0.740568L45.6378 0.735676C44.5577 0.731603 44.3367 0.735144 44.3284 0.756612ZM11.9012 0.802421C11.8682 0.960329 10.0059 11.094 10.0059 11.1156C10.0059 11.1372 10.2371 11.1415 11.3944 11.1415H12.7828L12.7936 11.0796C12.8157 10.9523 14.1929 1.74404 14.1929 1.72332C14.1929 1.7114 14.21 1.70168 14.231 1.70168C14.2519 1.70168 14.269 1.71241 14.269 1.72553C14.269 1.74878 15.6091 10.9569 15.6303 11.0796L15.6411 11.1415H17.0299H18.4187L18.4088 11.0987C18.3962 11.0444 16.5148 0.775092 16.5148 0.760723C16.5148 0.75488 15.4792 0.750084 14.2134 0.750084H11.9121L11.9012 0.802421ZM20.7137 0.887988C20.7045 1.00987 20.4903 10.822 20.4919 11.0511L20.4925 11.1415H21.7866H23.0808L23.081 10.3469C23.0813 8.37416 23.1396 1.80656 23.1569 1.78928C23.167 1.77914 23.1805 1.776 23.1868 1.78232C23.1931 1.78863 23.583 3.87777 24.0532 6.42482C24.5233 8.9719 24.9125 11.0751 24.9178 11.0987L24.9276 11.1415H26.2378H27.548L27.5678 11.0416C27.5786 10.9866 27.9665 8.88622 28.4297 6.37401C28.8929 3.8618 29.2791 1.79823 29.2881 1.78827C29.2983 1.77685 29.3103 1.77685 29.3208 1.78827C29.3331 1.8018 29.4031 9.91066 29.3999 10.9655L29.3994 11.1415H30.6944H31.9894L31.9779 10.8037C31.9717 10.6179 31.9245 8.46181 31.8732 6.0124C31.8219 3.563 31.7743 1.37696 31.7675 1.15451L31.7551 0.750084L29.6495 0.750102L27.5438 0.750141L26.9065 4.72057C26.3056 8.46422 26.2557 8.75048 26.213 8.70302C26.2095 8.6991 25.9203 6.91023 25.5703 4.72775L24.934 0.7596L22.829 0.754765L20.7241 0.749913L20.7137 0.887988ZM54.4834 5.89821V11.0463H55.749H57.0147L57.0145 10.8132C57.0144 10.685 56.9845 8.82436 56.948 6.67852C56.9115 4.53267 56.8816 2.73203 56.8816 2.67706C56.8814 2.52009 56.9265 2.54527 56.984 2.73416C57.0102 2.82052 57.2723 3.68766 57.5664 4.66114C57.8604 5.63462 58.4148 7.46958 58.7982 8.73881L59.4953 11.0465L61.3334 11.0417L63.1715 11.0368L63.1763 5.89345L63.1811 0.750084H61.8959H60.6108L60.6217 1.13548C60.6277 1.34746 60.6575 3.03677 60.6879 4.88952C60.7183 6.74227 60.7474 8.40591 60.7525 8.58646C60.7611 8.88913 60.7593 8.91476 60.7288 8.91476C60.7012 8.91476 60.5014 8.24638 59.5184 4.86573C58.8708 2.63875 58.3371 0.801698 58.3322 0.783389C58.3239 0.751949 58.216 0.750084 56.4034 0.750084H54.4834V5.89821Z" fill="#2D2D2D"/>
</svg>
